<?xml version="1.0" standalone="no"?>
<!DOCTYPE svg PUBLIC "-//W3C//DTD SVG 1.1//EN" "http://www.w3.org/Graphics/SVG/1.1/DTD/svg11.dtd">

<svg width="800" height="600" version="1.1" xmlns="http://www.w3.org/2000/svg">
	<ellipse stroke="black" stroke-width="1" fill="none" cx="464.5" cy="36.5" rx="30" ry="30"/>
	<text x="413.5" y="42.5" font-family="Times New Roman" font-size="20">landing page</text>
	<ellipse stroke="black" stroke-width="1" fill="none" cx="464.5" cy="36.5" rx="24" ry="24"/>
	<ellipse stroke="black" stroke-width="1" fill="none" cx="464.5" cy="122.5" rx="30" ry="30"/>
	<text x="422.5" y="128.5" font-family="Times New Roman" font-size="20">login page</text>
	<ellipse stroke="black" stroke-width="1" fill="none" cx="466.5" cy="252.5" rx="30" ry="30"/>
	<text x="404.5" y="258.5" font-family="Times New Roman" font-size="20">welcome portal</text>
	<ellipse stroke="black" stroke-width="1" fill="none" cx="466.5" cy="387.5" rx="30" ry="30"/>
	<text x="419.5" y="393.5" font-family="Times New Roman" font-size="20">enrollments</text>
	<ellipse stroke="black" stroke-width="1" fill="none" cx="634.5" cy="355.5" rx="30" ry="30"/>
	<text x="591.5" y="361.5" font-family="Times New Roman" font-size="20">instruction</text>
	<ellipse stroke="black" stroke-width="1" fill="none" cx="172.5" cy="258.5" rx="30" ry="30"/>
	<text x="134.5" y="264.5" font-family="Times New Roman" font-size="20">transcript</text>
	<ellipse stroke="black" stroke-width="1" fill="none" cx="389.5" cy="465.5" rx="30" ry="30"/>
	<text x="333.5" y="471.5" font-family="Times New Roman" font-size="20">search classes</text>
	<ellipse stroke="black" stroke-width="1" fill="none" cx="464.5" cy="512.5" rx="30" ry="30"/>
	<text x="428.5" y="518.5" font-family="Times New Roman" font-size="20">add class</text>
	<ellipse stroke="black" stroke-width="1" fill="none" cx="540.5" cy="471.5" rx="30" ry="30"/>
	<text x="500.5" y="477.5" font-family="Times New Roman" font-size="20">drop class</text>
	<ellipse stroke="black" stroke-width="1" fill="none" cx="634.5" cy="538.5" rx="30" ry="30"/>
	<text x="589.5" y="544.5" font-family="Times New Roman" font-size="20">select class</text>
	<ellipse stroke="black" stroke-width="1" fill="none" cx="726.5" cy="435.5" rx="30" ry="30"/>
	<text x="672.5" y="441.5" font-family="Times New Roman" font-size="20">grade student</text>
	<ellipse stroke="black" stroke-width="1" fill="none" cx="304.5" cy="366.5" rx="30" ry="30"/>
	<text x="245.5" y="372.5" font-family="Times New Roman" font-size="20">current classes</text>
	<ellipse stroke="black" stroke-width="1" fill="none" cx="304.5" cy="560.5" rx="30" ry="30"/>
	<text x="256.5" y="566.5" font-family="Times New Roman" font-size="20">view details</text>
	<polygon stroke="black" stroke-width="1" points="464.5,66.5 464.5,92.5"/>
	<polygon fill="black" stroke-width="1" points="464.5,92.5 469.5,84.5 459.5,84.5"/>
	<path stroke="black" stroke-width="1" fill="none" d="M 487.557,141.51 A 22.5,22.5 0 1 1 463.436,152.364"/>
	<text x="496.5" y="205.5" font-family="Times New Roman" font-size="20">no account</text>
	<polygon fill="black" stroke-width="1" points="463.436,152.364 456.909,159.176 466.699,161.216"/>
	<polygon stroke="black" stroke-width="1" points="464.961,152.496 466.039,222.504"/>
	<polygon fill="black" stroke-width="1" points="466.039,222.504 470.915,214.428 460.916,214.581"/>
	<text x="364.5" y="193.5" font-family="Times New Roman" font-size="20">correct u&amp;p</text>
	<polygon stroke="black" stroke-width="1" points="466.5,282.5 466.5,357.5"/>
	<polygon fill="black" stroke-width="1" points="466.5,357.5 471.5,349.5 461.5,349.5"/>
	<polygon stroke="black" stroke-width="1" points="492.076,268.18 608.924,339.82"/>
	<polygon fill="black" stroke-width="1" points="608.924,339.82 604.717,331.375 599.491,339.901"/>
	<polygon stroke="black" stroke-width="1" points="436.506,253.112 202.494,257.888"/>
	<polygon fill="black" stroke-width="1" points="202.494,257.888 210.594,262.724 210.39,252.726"/>
	<polygon stroke="black" stroke-width="1" points="445.424,408.85 410.576,444.15"/>
	<polygon fill="black" stroke-width="1" points="410.576,444.15 419.754,441.97 412.638,434.944"/>
	<polygon stroke="black" stroke-width="1" points="466.02,417.496 464.98,482.504"/>
	<polygon fill="black" stroke-width="1" points="464.98,482.504 470.107,474.585 460.109,474.425"/>
	<polygon stroke="black" stroke-width="1" points="486.331,410.011 520.669,448.989"/>
	<polygon fill="black" stroke-width="1" points="520.669,448.989 519.133,439.681 511.629,446.292"/>
	<polygon stroke="black" stroke-width="1" points="634.5,385.5 634.5,508.5"/>
	<polygon fill="black" stroke-width="1" points="634.5,508.5 639.5,500.5 629.5,500.5"/>
	<polygon stroke="black" stroke-width="1" points="654.485,516.126 706.515,457.874"/>
	<polygon fill="black" stroke-width="1" points="706.515,457.874 697.457,460.51 704.915,467.172"/>
	<polygon stroke="black" stroke-width="1" points="441.966,269.765 329.034,349.235"/>
	<polygon fill="black" stroke-width="1" points="329.034,349.235 338.454,348.72 332.699,340.542"/>
	<polygon stroke="black" stroke-width="1" points="304.5,396.5 304.5,530.5"/>
	<polygon fill="black" stroke-width="1" points="304.5,530.5 309.5,522.5 299.5,522.5"/>
	<polygon stroke="black" stroke-width="1" points="369.496,487.857 324.504,538.143"/>
	<polygon fill="black" stroke-width="1" points="324.504,538.143 333.564,535.515 326.112,528.847"/>
	<polygon stroke="black" stroke-width="1" points="334.434,558.504 604.566,540.496"/>
	<polygon fill="black" stroke-width="1" points="604.566,540.496 596.252,536.039 596.917,546.017"/>
	<polygon stroke="black" stroke-width="1" points="184.515,285.989 292.485,533.011"/>
	<polygon fill="black" stroke-width="1" points="292.485,533.011 293.862,523.678 284.699,527.683"/>
</svg>
